<svg xmlns="http://www.w3.org/2000/svg" xmlns:xlink="http://www.w3.org/1999/xlink" version="1.1" width="1000" height="1000" viewBox="0 0 1000 1000" xml:space="preserve">
<desc>Created with Fabric.js 3.5.0</desc>
<defs>
</defs>
<rect x="0" y="0" width="100%" height="100%" fill="#f0f5ff"/>
<g transform="matrix(4.6392 0 0 4.6392 500.0228 519.2806)" id="Layer_1">
<polygon style="stroke: none; stroke-width: 1; stroke-dasharray: none; stroke-linecap: butt; stroke-dashoffset: 0; stroke-linejoin: miter; stroke-miterlimit: 4; is-custom-font: none; font-file-url: none; fill: rgb(114,168,218); fill-rule: nonzero; opacity: 0.4;" points="64.685,46.905 -0.005,84.165 -64.685,46.905 -64.685,-46.905 -0.005,-84.165 64.685,-46.905 "/>
</g>
<g transform="matrix(4.6392 0 0 4.6392 405.8007 640.5958)" id="Layer_1">
<polygon style="stroke: none; stroke-width: 1; stroke-dasharray: none; stroke-linecap: butt; stroke-dashoffset: 0; stroke-linejoin: miter; stroke-miterlimit: 4; is-custom-font: none; font-file-url: none; fill: rgb(197,103,40); fill-rule: nonzero; opacity: 1;" points="-20.515,37.355 -18.485,-57.205 20.515,-37.075 18.195,57.205 "/>
</g>
<g transform="matrix(4.6392 0 0 4.6392 590.928 633.5907)" id="Layer_1">
<polygon style="stroke: none; stroke-width: 1; stroke-dasharray: none; stroke-linecap: butt; stroke-dashoffset: 0; stroke-linejoin: miter; stroke-miterlimit: 4; is-custom-font: none; font-file-url: none; fill: rgb(242,169,30); fill-rule: nonzero; opacity: 1;" points="19.82,37.695 19.18,-57.545 -19.82,-37.415 -18.88,57.545 "/>
</g>
<g transform="matrix(4.6392 0 0 4.6392 498.5615 354.3803)" id="Layer_1">
<polygon style="stroke: none; stroke-width: 1; stroke-dasharray: none; stroke-linecap: butt; stroke-dashoffset: 0; stroke-linejoin: miter; stroke-miterlimit: 4; is-custom-font: none; font-file-url: none; fill: rgb(235,133,35); fill-rule: nonzero; opacity: 1;" points="-0.97,-21.9 -37.02,0.58 3.29,21.9 37.02,1.36 "/>
</g>
<g transform="matrix(4.6392 0 0 4.6392 500.0229 588.9151)" id="Layer_1">
<polygon style="stroke: rgb(26,31,40); stroke-width: 9.8074; stroke-dasharray: none; stroke-linecap: butt; stroke-dashoffset: 0; stroke-linejoin: miter; stroke-miterlimit: 10; is-custom-font: none; font-file-url: none; fill: none; fill-rule: nonzero; opacity: 1;" points="39.085,48.035 -0.005,69.685 -39.085,48.035 -39.085,-47.165 -0.005,-69.685 39.085,-47.165 "/>
</g>
<g transform="matrix(4.6392 0 0 4.6392 499.9998 474.5588)" id="Layer_1">
<polygon style="stroke: rgb(26,31,40); stroke-width: 13.0765; stroke-dasharray: none; stroke-linecap: butt; stroke-dashoffset: 0; stroke-linejoin: miter; stroke-miterlimit: 10; is-custom-font: none; font-file-url: none; fill: none; fill-rule: nonzero; opacity: 1;" points="83.11,47.875 0,95.755 -83.11,47.875 -83.11,-47.875 0,-95.755 83.11,-47.875 "/>
</g>
<g transform="matrix(4.6392 0 0 4.6392 498.2835 691.7431)" id="Layer_1">
<line style="stroke: rgb(26,31,40); stroke-width: 9.8107; stroke-dasharray: none; stroke-linecap: butt; stroke-dashoffset: 0; stroke-linejoin: miter; stroke-miterlimit: 10; is-custom-font: none; font-file-url: none; fill: none; fill-rule: nonzero; opacity: 1;" x1="0" y1="-49.25" x2="0" y2="49.25"/>
</g>
<g transform="matrix(4.6392 0 0 4.6392 693.64 357.9988)" id="Layer_1">
<line style="stroke: rgb(26,31,40); stroke-width: 9.8074; stroke-dasharray: none; stroke-linecap: butt; stroke-dashoffset: 0; stroke-linejoin: miter; stroke-miterlimit: 10; is-custom-font: none; font-file-url: none; fill: none; fill-rule: nonzero; opacity: 1;" x1="-41.81999999999999" y1="22.750000000000007" x2="41.81999999999999" y2="-22.750000000000007"/>
</g>
<g transform="matrix(4.6392 0 0 4.6392 307.4495 357.9988)" id="Layer_1">
<line style="stroke: rgb(26,31,40); stroke-width: 9.8074; stroke-dasharray: none; stroke-linecap: butt; stroke-dashoffset: 0; stroke-linejoin: miter; stroke-miterlimit: 10; is-custom-font: none; font-file-url: none; fill: none; fill-rule: nonzero; opacity: 1;" x1="41.42499999999998" y1="22.750000000000007" x2="-41.42499999999998" y2="-22.750000000000007"/>
</g>
<g transform="matrix(4.6392 0 0 4.6392 499.9996 948.4303)" id="Layer_1">
<ellipse style="stroke: none; stroke-width: 1; stroke-dasharray: none; stroke-linecap: butt; stroke-dashoffset: 0; stroke-linejoin: miter; stroke-miterlimit: 4; is-custom-font: none; font-file-url: none; fill: rgb(26,31,40); fill-rule: nonzero; opacity: 1;" cx="0" cy="0" rx="84.05" ry="8.49"/>
</g>
<g transform="matrix(4.6392 0 0 4.6392 406.0558 565.8816)" id="Layer_1">
<line style="stroke: rgb(26,31,40); stroke-width: 9.8074; stroke-dasharray: none; stroke-linecap: butt; stroke-dashoffset: 0; stroke-linejoin: miter; stroke-miterlimit: 10; is-custom-font: none; font-file-url: none; fill: none; fill-rule: nonzero; opacity: 1;" x1="19.119999999999976" y1="10.809999999999988" x2="-19.119999999999976" y2="-10.809999999999988"/>
</g>
<g transform="matrix(4.6392 0 0 4.6392 406.0558 709.4417)" id="Layer_1">
<line style="stroke: rgb(26,31,40); stroke-width: 9.8074; stroke-dasharray: none; stroke-linecap: butt; stroke-dashoffset: 0; stroke-linejoin: miter; stroke-miterlimit: 10; is-custom-font: none; font-file-url: none; fill: none; fill-rule: nonzero; opacity: 1;" x1="19.119999999999976" y1="10.814999999999998" x2="-19.119999999999976" y2="-10.814999999999998"/>
</g>
<g transform="matrix(4.6392 0 0 4.6392 587.6577 565.8819)" id="Layer_1">
<line style="stroke: rgb(26,31,40); stroke-width: 9.8107; stroke-dasharray: none; stroke-linecap: butt; stroke-dashoffset: 0; stroke-linejoin: miter; stroke-miterlimit: 10; is-custom-font: none; font-file-url: none; fill: none; fill-rule: nonzero; opacity: 1;" x1="-19.125" y1="10.809999999999988" x2="19.125" y2="-10.809999999999988"/>
</g>
<g transform="matrix(4.6392 0 0 4.6392 587.6574 709.4417)" id="Layer_1">
<line style="stroke: rgb(26,31,40); stroke-width: 9.8074; stroke-dasharray: none; stroke-linecap: butt; stroke-dashoffset: 0; stroke-linejoin: miter; stroke-miterlimit: 10; is-custom-font: none; font-file-url: none; fill: none; fill-rule: nonzero; opacity: 1;" x1="-19.125" y1="10.814999999999998" x2="19.125" y2="-10.814999999999998"/>
</g>
</svg>